{"title":"Planet.51[2009]XviD.Cody'sDVDrip","uid":5390648,"size":707007143,"categoryP":"video","categoryS":"movies","magnet":"?xt=urn:btih:6302f6a7ecc78c6cc60f338da3bda45cf190da2d&amp;dn=Planet.51%5B2009%5DXviD.Cody%5C%27sDVDrip&amp;tr=udp%3A%2F%2Ftracker.openbittorrent.com%3A80&amp;tr=udp%3A%2F%2Fopen.demonii.com%3A1337&amp;tr=udp%3A%2F%2Ftracker.coppersurfer.tk%3A6969&amp;tr=udp%3A%2F%2Fexodus.desync.com%3A6969","seeders":0,"leechers":0,"uploader":"CODYBOSS1969","files":4,"time":1267049095,"description":"General\nComplete name : Planet.51[2009]XviD.Cody'sDVDrip.avi\nFormat : AVI\nFormat/Info : Audio Video Interleave\nFile size : 674 MiB\nDuration : 1h 31mn\nOverall bit rate : 1 035 Kbps\nWriting application : VirtualDubMod 1.5.10.2 (build 2540/release)\nWriting library : VirtualDubMod build 2540/release\n\nVideo\nFormat : MPEG-4 Visual\nFormat profile : Streaming Video@L1\nFormat settings, BVOP : Yes\nFormat settings, QPel : Yes\nFormat settings, GMC : 3 warppoints\nFormat settings, Matrix : Default\nMuxing mode : Packet Bitstream\nCodec ID : XVID\nCodec ID/Hint : XviD\nDuration : 1h 31mn\nBit rate : 898 Kbps\nWidth : 720 pixels\nHeight : 304 pixels\nDisplay aspect ratio : 2.35\nFrame rate : 23.976 fps\nResolution : 24 bits\nColorimetry : 4:2:0\nScan type : Progressive\nBits/(Pixel*Frame) : 0.171\nStream size : 585 MiB (87%)\nWriting library : XviD 1.2.0.dev47 (UTC 2006-11-01)\n\nAudio\nFormat : MPEG Audio\nFormat version : Version 1\nFormat profile : Layer 3\nCodec ID : 55\nCodec ID/Hint : MP3\nDuration : 1h 31mn\nBit rate mode : Constant\nBit rate : 128 Kbps\nMinimum bit rate : 128 Kbps\nChannel(s) : 2 channels\nSampling rate : 48.0 KHz\nResolution : 16 bits\nStream size : 83.3 MiB (12%)\nAlignment : Aligned on interleaves\nInterleave, duration : 42 ms (1.00 video frame)\nInterleave, preload duration : 504 ms\nWriting library : LAME3.97\nEncoding settings : CBR\n &lt;a href=&quot;\nhttp://www.imdb.com/title/tt0762125/&quot; rel=&quot;nofollow&quot; target=&quot;_NEW&quot;&gt;\nhttp://www.imdb.com/title/tt0762125/&lt;/a&gt;\n\n\nSubtitles included: Romanian\n\nDON'T FORGET TO SEED !!!\n\nHIT AND RUN IS NOT AN OPTION BECAUSE THIS IS ... A TORRENT !!!","torrent":{"xt":"urn:btih:6302f6a7ecc78c6cc60f338da3bda45cf190da2d","amp;dn":"Planet.51%5B2009%5DXviD.Cody%5C%27sDVDrip","amp;tr":["udp%3A%2F%2Ftracker.openbittorrent.com%3A80","udp%3A%2F%2Fopen.demonii.com%3A1337","udp%3A%2F%2Ftracker.coppersurfer.tk%3A6969","udp%3A%2F%2Fexodus.desync.com%3A6969"],"infoHash":"6302f6a7ecc78c6cc60f338da3bda45cf190da2d","infoHashBuffer":{"type":"Buffer","data":[99,2,246,167,236,199,140,108,198,15,51,141,163,189,164,92,241,144,218,45]},"announce":[],"urlList":[]}}